EddieSans_v0.1.ufo
<glyph name="exclam" format="2">
  <advance width="168"/>
  <unicode hex="0021"/>
  <outline>
    <contour>
      <point x="30" y="64" type="qcurve" smooth="yes"/>
      <point x="30" y="27"/>
      <point x="63" y="0"/>
      <point x="84" y="0" type="qcurve" smooth="yes"/>
      <point x="105" y="0"/>
      <point x="138" y="27"/>
      <point x="138" y="64" type="qcurve" smooth="yes"/>
      <point x="138" y="101"/>
      <point x="105" y="127"/>
      <point x="84" y="127" type="qcurve" smooth="yes"/>
      <point x="63" y="127"/>
      <point x="30" y="101"/>
    </contour>
    <contour>
      <point x="52" y="203" type="line"/>
      <point x="115" y="203" type="line"/>
      <point x="134" y="700" type="line"/>
      <point x="33" y="700" type="line"/>
    </contour>
  </outline>
</glyph>
<glyph name="dollar" format="2">
  <advance width="392"/>
  <unicode hex="0024"/>
  <outline>
    <contour>
      <point x="149" y="-81" type="line"/>
      <point x="246" y="-81" type="line"/>
      <point x="246" y="52" type="line"/>
      <point x="149" y="52" type="line"/>
    </contour>
    <contour>
      <point x="149" y="656" type="line"/>
      <point x="246" y="656" type="line"/>
      <point x="246" y="789" type="line"/>
      <point x="149" y="789" type="line"/>
    </contour>
    <contour>
      <point x="203" y="-11" type="qcurve" smooth="yes"/>
      <point x="280" y="-11"/>
      <point x="362" y="95"/>
      <point x="362" y="175" type="qcurve" smooth="yes"/>
      <point x="362" y="217.75"/>
      <point x="339.94" y="281.77"/>
      <point x="304.311" y="331.784"/>
      <point x="259.356" y="371.527"/>
      <point x="236.461" y="390" type="qcurve" smooth="yes"/>
      <point x="215.668" y="406.777"/>
      <point x="176.888" y="441.097"/>
      <point x="146.987" y="481.458"/>
      <point x="129" y="530.5"/>
      <point x="129" y="562" type="qcurve" smooth="yes"/>
      <point x="129" y="605"/>
      <point x="163.737" y="650"/>
      <point x="190.534" y="650" type="qcurve" smooth="yes"/>
      <point x="221.301" y="650"/>
      <point x="261" y="592"/>
      <point x="261" y="488" type="qcurve"/>
      <point x="347" y="488" type="line"/>
      <point x="347" y="595"/>
      <point x="277" y="719"/>
      <point x="199" y="719" type="qcurve" smooth="yes"/>
      <point x="132" y="719"/>
      <point x="43" y="624"/>
      <point x="43" y="547" type="qcurve" smooth="yes"/>
      <point x="43" y="506.125"/>
      <point x="65.5689" y="442.276"/>
      <point x="101.873" y="390.293"/>
      <point x="147.494" y="347.16"/>
      <point x="170.547" y="327" type="qcurve" smooth="yes"/>
      <point x="190.806" y="309.284"/>
      <point x="228.824" y="270.572"/>
      <point x="258.24" y="228.231"/>
      <point x="276" y="182.087"/>
      <point x="276" y="156.94" type="qcurve" smooth="yes"/>
      <point x="276" y="121"/>
      <point x="237.761" y="58"/>
      <point x="201.535" y="58" type="qcurve" smooth="yes"/>
      <point x="160.277" y="58"/>
      <point x="116" y="150"/>
      <point x="116" y="255" type="qcurve"/>
      <point x="30" y="255" type="line"/>
      <point x="30" y="126"/>
      <point x="118" y="-11"/>
    </contour>
  </outline>
</glyph>
<glyph name="ampersand" format="2">
  <advance width="452"/>
  <unicode hex="0026"/>
  <outline>
    <contour>
      <point x="66" y="544" type="qcurve" smooth="yes"/>
      <point x="66" y="515.875"/>
      <point x="79.0625" y="461.719"/>
      <point x="109.438" y="394.031"/>
      <point x="159.25" y="305"/>
      <point x="196" y="242" type="qcurve" smooth="yes"/>
      <point x="338" y="0" type="line"/>
      <point x="422" y="0" type="line"/>
      <point x="219" y="366" type="line" smooth="yes"/>
      <point x="198" y="403.5"/>
      <point x="171.188" y="458.469"/>
      <point x="155.812" y="500.281"/>
      <point x="150" y="532.375"/>
      <point x="150" y="547" type="qcurve" smooth="yes"/>
      <point x="150" y="561.625"/>
      <point x="155.25" y="593.094"/>
      <point x="167.25" y="619.156"/>
      <point x="186.75" y="636"/>
      <point x="201" y="636" type="qcurve" smooth="yes"/>
      <point x="228.166" y="636"/>
      <point x="249" y="580.994"/>
      <point x="249" y="541" type="qcurve" smooth="yes"/>
      <point x="249" y="514.75"/>
      <point x="230.438" y="466.094"/>
      <point x="200.062" y="421.656"/>
      <point x="161.25" y="381.625"/>
      <point x="141" y="364" type="qcurve" smooth="yes"/>
      <point x="120.375" y="346"/>
      <point x="80.5312" y="306.188"/>
      <point x="49.2188" y="259.312"/>
      <point x="30" y="203.75"/>
      <point x="30" y="170" type="qcurve" smooth="yes"/>
      <point x="30" y="138.875"/>
      <point x="48.25" y="73.2812"/>
      <point x="85.75" y="19.4688"/>
      <point x="143" y="-15"/>
      <point x="182" y="-15" type="qcurve" smooth="yes"/>
      <point x="234.5" y="-15"/>
      <point x="316.062" y="48.1562"/>
      <point x="371.938" y="149.594"/>
      <point x="401" y="276.875"/>
      <point x="401" y="341" type="qcurve"/>
      <point x="315" y="341" type="line"/>
      <point x="315" y="288.5"/>
      <point x="301.031" y="185.688"/>
      <point x="269.719" y="104.312"/>
      <point x="219.375" y="54"/>
      <point x="183" y="54" type="qcurve" smooth="yes"/>
      <point x="161.25" y="54"/>
      <point x="131.75" y="72"/>
      <point x="113.75" y="102"/>
      <point x="106" y="141"/>
      <point x="106" y="162" type="qcurve" smooth="yes"/>
      <point x="106" y="207.75"/>
      <point x="166" y="282"/>
      <point x="205" y="318" type="qcurve" smooth="yes"/>
      <point x="227.875" y="339"/>
      <point x="274.531" y="386.906"/>
      <point x="312.219" y="443.344"/>
      <point x="336" y="509.625"/>
      <point x="336" y="549" type="qcurve" smooth="yes"/>
      <point x="336" y="576"/>
      <point x="322.219" y="631.5"/>
      <point x="290.531" y="676.5"/>
      <point x="238.875" y="705"/>
      <point x="201" y="705" type="qcurve" smooth="yes"/>
      <point x="163.5" y="705"/>
      <point x="111.938" y="677.188"/>
      <point x="80.0625" y="631.812"/>
      <point x="66" y="574"/>
    </contour>
  </outline>
</glyph>
<glyph name="parenleft" format="2">
  <advance width="230"/>
  <unicode hex="0028"/>
  <outline>
    <contour>
      <point x="148" y="-50" type="qcurve"/>
      <point x="200" y="-50" type="line"/>
      <point x="165" y="15"/>
      <point x="116" y="224"/>
      <point x="116" y="339" type="qcurve" smooth="yes"/>
      <point x="116" y="461"/>
      <point x="173" y="691"/>
      <point x="200" y="751" type="qcurve"/>
      <point x="148" y="751" type="line"/>
      <point x="84" y="640"/>
      <point x="30" y="443"/>
      <point x="30" y="339" type="qcurve" smooth="yes"/>
      <point x="30" y="237"/>
      <point x="84" y="57"/>
    </contour>
  </outline>
</glyph>
<glyph name="parenright" format="2">
  <advance width="230"/>
  <unicode hex="0029"/>
  <outline>
    <contour>
      <point x="82" y="-50" type="qcurve"/>
      <point x="30" y="-50" type="line"/>
      <point x="65" y="15"/>
      <point x="114" y="224"/>
      <point x="114" y="339" type="qcurve" smooth="yes"/>
      <point x="114" y="461"/>
      <point x="57" y="691"/>
      <point x="30" y="751" type="qcurve"/>
      <point x="82" y="751" type="line"/>
      <point x="146" y="640"/>
      <point x="200" y="443"/>
      <point x="200" y="339" type="qcurve" smooth="yes"/>
      <point x="200" y="237"/>
      <point x="146" y="57"/>
    </contour>
  </outline>
</glyph>
<glyph name="comma" format="2">
  <advance width="160"/>
  <unicode hex="002C"/>
  <outline>
    <contour>
      <point x="30" y="76" type="qcurve" smooth="yes"/>
      <point x="30" y="44"/>
      <point x="66" y="15"/>
      <point x="78" y="15" type="qcurve"/>
      <point x="54" y="-70" type="line"/>
      <point x="88" y="-70" type="line"/>
      <point x="103" y="-42"/>
      <point x="130" y="44"/>
      <point x="130" y="72" type="qcurve" smooth="yes"/>
      <point x="130" y="98"/>
      <point x="104" y="130"/>
      <point x="79" y="130" type="qcurve" smooth="yes"/>
      <point x="59" y="130"/>
      <point x="30" y="106"/>
    </contour>
  </outline>
</glyph>
<glyph name="three" format="2">
  <advance width="361"/>
  <unicode hex="0033"/>
  <outline>
    <contour>
      <point x="149" y="409" type="line"/>
      <point x="149" y="325" type="line"/>
      <point x="157" y="325" type="line" smooth="yes"/>
      <point x="184.75" y="325"/>
      <point x="222.938" y="299.625"/>
      <point x="246.562" y="258.375"/>
      <point x="257" y="206"/>
      <point x="257" y="179" type="qcurve" smooth="yes"/>
      <point x="257" y="127"/>
      <point x="223" y="63"/>
      <point x="191" y="63" type="qcurve" smooth="yes"/>
      <point x="159" y="63"/>
      <point x="123" y="128"/>
      <point x="123" y="191" type="qcurve"/>
      <point x="40" y="191" type="line"/>
      <point x="40" y="96"/>
      <point x="121" y="-15"/>
      <point x="191" y="-15" type="qcurve" smooth="yes"/>
      <point x="264" y="-15"/>
      <point x="341" y="102"/>
      <point x="341" y="187" type="qcurve" smooth="yes"/>
      <point x="341" y="252.65"/>
      <point x="299.448" y="338.589"/>
      <point x="267" y="365" type="qcurve"/>
      <point x="299.448" y="389.147"/>
      <point x="341" y="467.632"/>
      <point x="341" y="528" type="qcurve" smooth="yes"/>
      <point x="341" y="609"/>
      <point x="258" y="715"/>
      <point x="189" y="715" type="qcurve" smooth="yes"/>
      <point x="114" y="715"/>
      <point x="40" y="591"/>
      <point x="40" y="485" type="qcurve"/>
      <point x="123" y="485" type="line"/>
      <point x="123" y="559"/>
      <point x="158" y="637"/>
      <point x="192" y="637" type="qcurve" smooth="yes"/>
      <point x="223" y="637"/>
      <point x="257" y="582"/>
      <point x="257" y="536" type="qcurve" smooth="yes"/>
      <point x="257" y="512.375"/>
      <point x="246.562" y="466.781"/>
      <point x="222.938" y="430.969"/>
      <point x="184.75" y="409"/>
      <point x="157" y="409" type="qcurve" smooth="yes"/>
    </contour>
  </outline>
</glyph>
<glyph name="four" format="2">
  <advance width="398"/>
  <unicode hex="0034"/>
  <outline>
    <contour>
      <point x="206" y="0" type="line"/>
      <point x="294" y="0" type="line"/>
      <point x="294" y="135" type="line"/>
      <point x="358" y="135" type="line"/>
      <point x="358" y="219" type="line"/>
      <point x="294" y="219" type="line"/>
      <point x="294" y="700" type="line"/>
      <point x="156" y="700" type="line"/>
      <point x="15" y="219" type="line"/>
      <point x="15" y="135" type="line"/>
      <point x="206" y="135" type="line"/>
    </contour>
    <contour>
      <point x="98" y="219" type="line"/>
      <point x="206" y="603" type="line"/>
      <point x="206" y="219" type="line"/>
    </contour>
  </outline>
</glyph>
<glyph name="five" format="2">
  <advance width="341"/>
  <unicode hex="0035"/>
  <outline>
    <contour>
      <point x="37" y="305" type="line"/>
      <point x="100" y="305" type="line"/>
      <point x="101.509" y="338.202"/>
      <point x="132.534" y="386"/>
      <point x="168" y="386" type="qcurve" smooth="yes"/>
      <point x="209.503" y="386"/>
      <point x="237" y="305.307"/>
      <point x="237" y="214" type="qcurve" smooth="yes"/>
      <point x="237" y="141"/>
      <point x="203" y="63"/>
      <point x="170" y="63" type="qcurve" smooth="yes"/>
      <point x="138" y="63"/>
      <point x="103" y="128"/>
      <point x="103" y="191" type="qcurve"/>
      <point x="20" y="191" type="line"/>
      <point x="20" y="96"/>
      <point x="100" y="-15"/>
      <point x="170" y="-15" type="qcurve" smooth="yes"/>
      <point x="248" y="-15"/>
      <point x="321" y="120"/>
      <point x="321" y="213" type="qcurve" smooth="yes"/>
      <point x="321" y="266.25"/>
      <point x="310.781" y="355.188"/>
      <point x="282.469" y="419.312"/>
      <point x="232.125" y="455"/>
      <point x="192" y="455" type="qcurve" smooth="yes"/>
      <point x="161.061" y="455"/>
      <point x="118.337" y="434.847"/>
      <point x="104" y="419" type="qcurve"/>
      <point x="111" y="614" type="line"/>
      <point x="290" y="614" type="line"/>
      <point x="290" y="700" type="line"/>
      <point x="48" y="700" type="line"/>
    </contour>
  </outline>
</glyph>
<glyph name="six" format="2">
  <advance width="359"/>
  <unicode hex="0036"/>
  <outline>
    <contour>
      <point x="187" y="-15" type="qcurve" smooth="yes"/>
      <point x="256" y="-15"/>
      <point x="339" y="127"/>
      <point x="339" y="230" type="qcurve" smooth="yes"/>
      <point x="339" y="337"/>
      <point x="253" y="451"/>
      <point x="194" y="451" type="qcurve" smooth="yes"/>
      <point x="139" y="451"/>
      <point x="112" y="400" type="qcurve"/>
      <point x="112" y="492"/>
      <point x="139" y="636"/>
      <point x="180" y="636" type="qcurve" smooth="yes"/>
      <point x="208" y="636"/>
      <point x="228" y="563"/>
      <point x="228" y="524" type="qcurve"/>
      <point x="317" y="524" type="line"/>
      <point x="317" y="595"/>
      <point x="250" y="715"/>
      <point x="183" y="715" type="qcurve" smooth="yes"/>
      <point x="97" y="715"/>
      <point x="20" y="509"/>
      <point x="20" y="352" type="qcurve" smooth="yes"/>
      <point x="20" y="190"/>
      <point x="104" y="-15"/>
    </contour>
    <contour>
      <point x="182" y="64" type="qcurve" smooth="yes"/>
      <point x="147" y="64"/>
      <point x="115" y="158"/>
      <point x="115" y="222" type="qcurve" smooth="yes"/>
      <point x="115" y="287"/>
      <point x="149" y="371"/>
      <point x="179" y="371" type="qcurve" smooth="yes"/>
      <point x="210" y="371"/>
      <point x="247" y="287"/>
      <point x="247" y="222" type="qcurve" smooth="yes"/>
      <point x="247" y="159"/>
      <point x="215" y="64"/>
    </contour>
  </outline>
</glyph>
<glyph name="eight" format="2">
  <advance width="341"/>
  <unicode hex="0038"/>
  <outline>
    <contour>
      <point x="321" y="185" type="qcurve" smooth="yes"/>
      <point x="321" y="238.577"/>
      <point x="286.239" y="322.061"/>
      <point x="247" y="353" type="qcurve"/>
      <point x="280.202" y="383.184"/>
      <point x="312" y="474.706"/>
      <point x="312" y="523" type="qcurve" smooth="yes"/>
      <point x="312" y="559.75"/>
      <point x="293.469" y="628.938"/>
      <point x="257.281" y="682.562"/>
      <point x="203.875" y="715"/>
      <point x="169" y="715" type="qcurve" smooth="yes"/>
      <point x="134.125" y="715"/>
      <point x="81.6562" y="682.906"/>
      <point x="46.5938" y="629.844"/>
      <point x="29" y="561.375"/>
      <point x="29" y="525" type="qcurve" smooth="yes"/>
      <point x="29" y="475.951"/>
      <point x="61.5522" y="382.429"/>
      <point x="94" y="353" type="qcurve"/>
      <point x="52.497" y="320.552"/>
      <point x="20" y="239.067"/>
      <point x="20" y="187" type="qcurve" smooth="yes"/>
      <point x="20" y="103"/>
      <point x="94" y="-15"/>
      <point x="169" y="-15" type="qcurve" smooth="yes"/>
      <point x="247" y="-15"/>
      <point x="321" y="103"/>
    </contour>
    <contour>
      <point x="171" y="304" type="qcurve" smooth="yes"/>
      <point x="189.375" y="304"/>
      <point x="214.594" y="280.719"/>
      <point x="230.156" y="244.531"/>
      <point x="237" y="200.625"/>
      <point x="237" y="180" type="qcurve" smooth="yes"/>
      <point x="237" y="131"/>
      <point x="203" y="63"/>
      <point x="169" y="63" type="qcurve" smooth="yes"/>
      <point x="137" y="63"/>
      <point x="104" y="132"/>
      <point x="104" y="180" type="qcurve" smooth="yes"/>
      <point x="104" y="201"/>
      <point x="111.156" y="245"/>
      <point x="127.094" y="281"/>
      <point x="152.625" y="304"/>
    </contour>
    <contour>
      <point x="171" y="402" type="qcurve" smooth="yes"/>
      <point x="155.25" y="402"/>
      <point x="133.5" y="426.469"/>
      <point x="120" y="463.781"/>
      <point x="114" y="508.125"/>
      <point x="114" y="528" type="qcurve" smooth="yes"/>
      <point x="114" y="573"/>
      <point x="143" y="637"/>
      <point x="198" y="637"/>
      <point x="227" y="573"/>
      <point x="227" y="527" type="qcurve" smooth="yes"/>
      <point x="227" y="507.5"/>
      <point x="221.594" y="463.562"/>
      <point x="208.656" y="426.438"/>
      <point x="187.125" y="402"/>
    </contour>
  </outline>
</glyph>
<glyph name="nine" format="2">
  <advance width="359"/>
  <unicode hex="0039"/>
  <outline>
    <contour>
      <point x="172" y="715" type="qcurve" smooth="yes"/>
      <point x="103" y="715"/>
      <point x="20" y="573"/>
      <point x="20" y="470" type="qcurve" smooth="yes"/>
      <point x="20" y="363"/>
      <point x="106" y="249"/>
      <point x="165" y="249" type="qcurve" smooth="yes"/>
      <point x="220" y="249"/>
      <point x="247" y="300" type="qcurve"/>
      <point x="247" y="208"/>
      <point x="220" y="64"/>
      <point x="179" y="64" type="qcurve" smooth="yes"/>
      <point x="151" y="64"/>
      <point x="131" y="137"/>
      <point x="131" y="176" type="qcurve"/>
      <point x="42" y="176" type="line"/>
      <point x="42" y="105"/>
      <point x="109" y="-15"/>
      <point x="176" y="-15" type="qcurve" smooth="yes"/>
      <point x="262" y="-15"/>
      <point x="339" y="191"/>
      <point x="339" y="348" type="qcurve" smooth="yes"/>
      <point x="339" y="510"/>
      <point x="255" y="715"/>
    </contour>
    <contour>
      <point x="177" y="636" type="qcurve" smooth="yes"/>
      <point x="212" y="636"/>
      <point x="244" y="542"/>
      <point x="244" y="478" type="qcurve" smooth="yes"/>
      <point x="244" y="413"/>
      <point x="210" y="329"/>
      <point x="180" y="329" type="qcurve" smooth="yes"/>
      <point x="149" y="329"/>
      <point x="112" y="413"/>
      <point x="112" y="478" type="qcurve" smooth="yes"/>
      <point x="112" y="541"/>
      <point x="144" y="636"/>
    </contour>
  </outline>
</glyph>
<glyph name="equal" format="2">
  <advance width="349"/>
  <unicode hex="003D"/>
  <outline>
    <contour>
      <point x="0" y="354" type="line"/>
      <point x="349" y="354" type="line"/>
      <point x="349" y="440" type="line"/>
      <point x="0" y="440" type="line"/>
    </contour>
    <contour>
      <point x="0" y="182" type="line"/>
      <point x="349" y="182" type="line"/>
      <point x="349" y="268" type="line"/>
      <point x="0" y="268" type="line"/>
    </contour>
  </outline>
</glyph>
<glyph name="question" format="2">
  <advance width="343"/>
  <unicode hex="003F"/>
  <outline>
    <component base="period" xOffset="59" yOffset="-4"/>
    <contour>
      <point x="187" y="203" type="line"/>
      <point x="187" y="251"/>
      <point x="220" y="319"/>
      <point x="246" y="354" type="qcurve" smooth="yes"/>
      <point x="281" y="401"/>
      <point x="313" y="491"/>
      <point x="313" y="545" type="qcurve" smooth="yes"/>
      <point x="313" y="624"/>
      <point x="247" y="712"/>
      <point x="175" y="712" type="qcurve" smooth="yes"/>
      <point x="95" y="712"/>
      <point x="30" y="597"/>
      <point x="30" y="490" type="qcurve"/>
      <point x="114" y="490" type="line"/>
      <point x="114" y="556"/>
      <point x="133" y="642"/>
      <point x="173" y="642" type="qcurve" smooth="yes"/>
      <point x="207" y="642"/>
      <point x="229" y="583"/>
      <point x="229" y="548" type="qcurve" smooth="yes"/>
      <point x="229" y="465"/>
      <point x="165" y="377" type="qcurve" smooth="yes"/>
      <point x="137" y="339"/>
      <point x="102" y="261"/>
      <point x="102" y="203" type="qcurve"/>
    </contour>
  </outline>
  <guideline angle="0" x="0" y="811"/>
  <guideline angle="0" x="0" y="811"/>
</glyph>
<glyph name="B" format="2">
  <advance width="374"/>
  <unicode hex="0042"/>
  <outline>
    <contour>
      <point x="40" y="0" type="line"/>
      <point x="171" y="0" type="line"/>
      <point x="258" y="0"/>
      <point x="354" y="113"/>
      <point x="354" y="202" type="qcurve" smooth="yes"/>
      <point x="354" y="270"/>
      <point x="303" y="349"/>
      <point x="275" y="368" type="qcurve"/>
      <point x="334" y="440"/>
      <point x="334" y="504" type="qcurve" smooth="yes"/>
      <point x="334" y="594"/>
      <point x="257" y="700"/>
      <point x="158" y="700" type="qcurve"/>
      <point x="40" y="700" type="line"/>
    </contour>
    <contour>
      <point x="126" y="397" type="line"/>
      <point x="126" y="631" type="line"/>
      <point x="164" y="631" type="line"/>
      <point x="211" y="631"/>
      <point x="248" y="560"/>
      <point x="248" y="509" type="qcurve" smooth="yes"/>
      <point x="248" y="462"/>
      <point x="214" y="397"/>
      <point x="169" y="397" type="qcurve"/>
    </contour>
    <contour>
      <point x="126" y="69" type="line"/>
      <point x="126" y="328" type="line"/>
      <point x="163" y="328" type="line"/>
      <point x="210" y="328"/>
      <point x="268" y="264"/>
      <point x="268" y="195" type="qcurve" smooth="yes"/>
      <point x="268" y="133"/>
      <point x="221" y="69"/>
      <point x="179" y="69" type="qcurve"/>
    </contour>
  </outline>
</glyph>
<glyph name="D" format="2">
  <advance width="355"/>
  <unicode hex="0044"/>
  <outline>
    <contour>
      <point x="162" y="0" type="line"/>
      <point x="258" y="0"/>
      <point x="335" y="199"/>
      <point x="335" y="350" type="qcurve" smooth="yes"/>
      <point x="335" y="503"/>
      <point x="257" y="700"/>
      <point x="159" y="700" type="qcurve"/>
      <point x="40" y="700" type="line"/>
      <point x="40" y="0" type="line"/>
    </contour>
    <contour>
      <point x="126" y="69" type="line"/>
      <point x="126" y="631" type="line"/>
      <point x="175" y="631" type="line" smooth="yes"/>
      <point x="218" y="631"/>
      <point x="249" y="469"/>
      <point x="249" y="351" type="qcurve" smooth="yes"/>
      <point x="249" y="234"/>
      <point x="220" y="69"/>
      <point x="180" y="69" type="qcurve" smooth="yes"/>
    </contour>
  </outline>
</glyph>
<glyph name="E" format="2">
  <advance width="302"/>
  <unicode hex="0045"/>
  <outline>
    <contour>
      <point x="40" y="0" type="line"/>
      <point x="297" y="0" type="line"/>
      <point x="297" y="69" type="line"/>
      <point x="126" y="69" type="line"/>
      <point x="126" y="336" type="line"/>
      <point x="250" y="336" type="line"/>
      <point x="250" y="405" type="line"/>
      <point x="126" y="405" type="line"/>
      <point x="126" y="631" type="line"/>
      <point x="290" y="631" type="line"/>
      <point x="290" y="700" type="line"/>
      <point x="40" y="700" type="line"/>
    </contour>
  </outline>
</glyph>
<glyph name="G" format="2">
  <advance width="358"/>
  <unicode hex="0047"/>
  <outline>
    <contour>
      <point x="170" y="-15" type="qcurve" smooth="yes"/>
      <point x="242" y="-15"/>
      <point x="282" y="79" type="qcurve"/>
      <point x="290" y="0" type="line"/>
      <point x="338" y="0" type="line"/>
      <point x="338" y="369" type="line"/>
      <point x="169" y="369" type="line"/>
      <point x="169" y="300" type="line"/>
      <point x="252" y="300" type="line"/>
      <point x="252" y="155"/>
      <point x="213" y="54"/>
      <point x="184" y="54" type="qcurve" smooth="yes"/>
      <point x="142" y="54"/>
      <point x="106" y="236"/>
      <point x="106" y="366" type="qcurve" smooth="yes"/>
      <point x="106" y="503"/>
      <point x="144" y="652"/>
      <point x="184" y="652" type="qcurve" smooth="yes"/>
      <point x="218" y="652"/>
      <point x="245" y="539"/>
      <point x="245" y="430" type="qcurve"/>
      <point x="331" y="430" type="line"/>
      <point x="331" y="571"/>
      <point x="282" y="679"/>
      <point x="223" y="721"/>
      <point x="179" y="721" type="qcurve" smooth="yes"/>
      <point x="131" y="721"/>
      <point x="69" y="669"/>
      <point x="20" y="532"/>
      <point x="20" y="353" type="qcurve" smooth="yes"/>
      <point x="20" y="177"/>
      <point x="68" y="43"/>
      <point x="129" y="-15"/>
    </contour>
  </outline>
</glyph>
<glyph name="J" format="2">
  <advance width="233"/>
  <unicode hex="004A"/>
  <outline>
    <contour>
      <point x="67" y="-15" type="line" smooth="yes"/>
      <point x="193" y="-15"/>
      <point x="193" y="180" type="qcurve" smooth="yes"/>
      <point x="193" y="700" type="line"/>
      <point x="107" y="700" type="line"/>
      <point x="107" y="183" type="line" smooth="yes"/>
      <point x="107" y="54"/>
      <point x="50" y="54" type="qcurve" smooth="yes"/>
      <point x="30" y="54" type="line"/>
      <point x="30" y="-15" type="line"/>
    </contour>
  </outline>
</glyph>
<glyph name="N" format="2">
  <advance width="391"/>
  <unicode hex="004E"/>
  <outline>
    <contour>
      <point x="40" y="0" type="line"/>
      <point x="126" y="0" type="line"/>
      <point x="126" y="532" type="line"/>
      <point x="241" y="0" type="line"/>
      <point x="351" y="0" type="line"/>
      <point x="351" y="700" type="line"/>
      <point x="265" y="700" type="line"/>
      <point x="265" y="188" type="line"/>
      <point x="158" y="700" type="line"/>
      <point x="40" y="700" type="line"/>
    </contour>
  </outline>
</glyph>
<glyph name="P" format="2">
  <advance width="354"/>
  <unicode hex="0050"/>
  <outline>
    <contour>
      <point x="40" y="0" type="line"/>
      <point x="126" y="0" type="line"/>
      <point x="126" y="303" type="line"/>
      <point x="166" y="303" type="line"/>
      <point x="248" y="303"/>
      <point x="334" y="419"/>
      <point x="334" y="503" type="qcurve" smooth="yes"/>
      <point x="334" y="580"/>
      <point x="264" y="700"/>
      <point x="178" y="700" type="qcurve"/>
      <point x="40" y="700" type="line"/>
    </contour>
    <contour>
      <point x="126" y="372" type="line"/>
      <point x="126" y="631" type="line"/>
      <point x="174" y="631" type="line" smooth="yes"/>
      <point x="207" y="631"/>
      <point x="248" y="551"/>
      <point x="248" y="499" type="qcurve" smooth="yes"/>
      <point x="248" y="447"/>
      <point x="209" y="372"/>
      <point x="179" y="372" type="qcurve" smooth="yes"/>
    </contour>
  </outline>
</glyph>
<glyph name="R" format="2">
  <advance width="360"/>
  <unicode hex="0052"/>
  <outline>
    <contour>
      <point x="40" y="0" type="line"/>
      <point x="126" y="0" type="line"/>
      <point x="126" y="304" type="line"/>
      <point x="189" y="304"/>
      <point x="236" y="233"/>
      <point x="236" y="177" type="qcurve"/>
      <point x="236" y="105" type="line"/>
      <point x="236" y="45"/>
      <point x="244" y="0"/>
      <point x="262" y="0" type="qcurve"/>
      <point x="340" y="0" type="line"/>
      <point x="340" y="30" type="line"/>
      <point x="330" y="41"/>
      <point x="322" y="99"/>
      <point x="322" y="128" type="qcurve"/>
      <point x="322" y="172" type="line"/>
      <point x="322" y="230"/>
      <point x="288" y="319"/>
      <point x="236" y="335" type="qcurve"/>
      <point x="289" y="350"/>
      <point x="331" y="439"/>
      <point x="331" y="508" type="qcurve" smooth="yes"/>
      <point x="331" y="597"/>
      <point x="259" y="700"/>
      <point x="184" y="700" type="qcurve"/>
      <point x="40" y="700" type="line"/>
    </contour>
    <contour>
      <point x="126" y="373" type="line"/>
      <point x="126" y="631" type="line"/>
      <point x="163" y="631" type="line" smooth="yes"/>
      <point x="198" y="631"/>
      <point x="246" y="572"/>
      <point x="246" y="503" type="qcurve" smooth="yes"/>
      <point x="246" y="441"/>
      <point x="205" y="373"/>
      <point x="163" y="373" type="qcurve" smooth="yes"/>
    </contour>
  </outline>
</glyph>
<glyph name="T" format="2">
  <advance width="356"/>
  <unicode hex="0054"/>
  <outline>
    <contour>
      <point x="135" y="0" type="line"/>
      <point x="221" y="0" type="line"/>
      <point x="221" y="631" type="line"/>
      <point x="341" y="631" type="line"/>
      <point x="341" y="700" type="line"/>
      <point x="15" y="700" type="line"/>
      <point x="15" y="631" type="line"/>
      <point x="135" y="631" type="line"/>
    </contour>
  </outline>
</glyph>
<glyph name="W" format="2">
  <advance width="550"/>
  <unicode hex="0057"/>
  <outline>
    <contour>
      <point x="232" y="700" type="line"/>
      <point x="166" y="129" type="line"/>
      <point x="101" y="700" type="line"/>
      <point x="15" y="700" type="line"/>
      <point x="110" y="0" type="line"/>
      <point x="220" y="0" type="line"/>
      <point x="275" y="571" type="line"/>
      <point x="330" y="0" type="line"/>
      <point x="440" y="0" type="line"/>
      <point x="535" y="700" type="line"/>
      <point x="449" y="700" type="line"/>
      <point x="384" y="129" type="line"/>
      <point x="318" y="700" type="line"/>
    </contour>
  </outline>
</glyph>
<glyph name="backslash" format="2">
  <advance width="376"/>
  <unicode hex="005C"/>
  <outline>
    <contour>
      <point x="346" y="-76" type="line"/>
      <point x="259" y="-76" type="line"/>
      <point x="30" y="750" type="line"/>
      <point x="116" y="750" type="line"/>
    </contour>
  </outline>
</glyph>
<glyph name="asciicircum" format="2">
  <advance width="287"/>
  <unicode hex="005E"/>
  <outline>
    <contour>
      <point x="30" y="500" type="line"/>
      <point x="113" y="500" type="line"/>
      <point x="143" y="597" type="line"/>
      <point x="173" y="500" type="line"/>
      <point x="257" y="500" type="line"/>
      <point x="183" y="700" type="line"/>
      <point x="103" y="700" type="line"/>
    </contour>
  </outline>
</glyph>
<glyph name="b" format="2">
  <advance width="340"/>
  <unicode hex="0062"/>
  <outline>
    <contour>
      <point x="30" y="0" type="line"/>
      <point x="116" y="0" type="line"/>
      <point x="116" y="38" type="line"/>
      <point x="147" y="-5"/>
      <point x="194" y="-5" type="qcurve" smooth="yes"/>
      <point x="249" y="-5"/>
      <point x="325" y="116"/>
      <point x="325" y="251" type="qcurve" smooth="yes"/>
      <point x="325" y="370"/>
      <point x="265" y="515"/>
      <point x="203" y="515" type="qcurve" smooth="yes"/>
      <point x="170" y="515"/>
      <point x="117" y="474"/>
      <point x="101" y="436" type="qcurve"/>
      <point x="101" y="700" type="line"/>
      <point x="30" y="700" type="line"/>
    </contour>
    <contour>
      <point x="174" y="56" type="qcurve" smooth="yes"/>
      <point x="146.834" y="56"/>
      <point x="116" y="120.914"/>
      <point x="116" y="176" type="qcurve" smooth="yes"/>
      <point x="116" y="300" type="line" smooth="yes"/>
      <point x="116" y="446"/>
      <point x="173" y="446" type="qcurve" smooth="yes"/>
      <point x="239" y="446"/>
      <point x="239" y="250" type="qcurve" smooth="yes"/>
      <point x="239" y="56"/>
    </contour>
  </outline>
</glyph>
<glyph name="c" format="2">
  <advance width="330"/>
  <unicode hex="0063"/>
  <outline>
    <contour>
      <point x="168" y="-5" type="qcurve" smooth="yes"/>
      <point x="235" y="-5"/>
      <point x="313" y="112.706"/>
      <point x="313" y="182" type="qcurve"/>
      <point x="227" y="182" type="line"/>
      <point x="227" y="134.062"/>
      <point x="202" y="64"/>
      <point x="171" y="64" type="qcurve" smooth="yes"/>
      <point x="134" y="64"/>
      <point x="101" y="172.168"/>
      <point x="101" y="255" type="qcurve" smooth="yes"/>
      <point x="101" y="337.832"/>
      <point x="134" y="446"/>
      <point x="174" y="446" type="qcurve" smooth="yes"/>
      <point x="206" y="446"/>
      <point x="230" y="381"/>
      <point x="230" y="305" type="qcurve"/>
      <point x="315" y="305" type="line"/>
      <point x="315" y="397"/>
      <point x="236" y="515"/>
      <point x="171" y="515" type="qcurve" smooth="yes"/>
      <point x="100" y="515"/>
      <point x="15" y="372.736"/>
      <point x="15" y="255" type="qcurve" smooth="yes"/>
      <point x="15" y="138.245"/>
      <point x="98" y="-5"/>
    </contour>
  </outline>
</glyph>
<glyph name="e" format="2">
  <advance width="330"/>
  <unicode hex="0065"/>
  <outline>
    <contour>
      <point x="168" y="-5" type="qcurve" smooth="yes"/>
      <point x="225" y="-5"/>
      <point x="306" y="86.4253"/>
      <point x="313" y="159" type="qcurve"/>
      <point x="227" y="159" type="line"/>
      <point x="227" y="111.096"/>
      <point x="193" y="65"/>
      <point x="169" y="65" type="qcurve" smooth="yes"/>
      <point x="137" y="65"/>
      <point x="101" y="155.286"/>
      <point x="101" y="223" type="qcurve"/>
      <point x="315" y="223" type="line"/>
      <point x="315" y="302" type="line"/>
      <point x="315" y="393"/>
      <point x="238" y="515"/>
      <point x="170" y="515" type="qcurve" smooth="yes"/>
      <point x="97" y="515"/>
      <point x="15" y="376.66"/>
      <point x="15" y="258.925" type="qcurve" smooth="yes"/>
      <point x="15" y="138.245"/>
      <point x="98" y="-5"/>
    </contour>
    <contour>
      <point x="103" y="293" type="line"/>
      <point x="103" y="349"/>
      <point x="136" y="446"/>
      <point x="172" y="446" type="qcurve" smooth="yes"/>
      <point x="206" y="446"/>
      <point x="231" y="357"/>
      <point x="231" y="293" type="qcurve"/>
    </contour>
  </outline>
</glyph>
<glyph name="f" format="2">
  <advance width="207"/>
  <unicode hex="0066"/>
  <outline>
    <contour>
      <point x="47" y="0" type="line"/>
      <point x="130" y="0" type="line"/>
      <point x="130" y="431" type="line"/>
      <point x="195" y="431" type="line"/>
      <point x="195" y="500" type="line"/>
      <point x="130" y="500" type="line"/>
      <point x="130" y="575"/>
      <point x="156" y="646"/>
      <point x="207" y="646" type="qcurve"/>
      <point x="207" y="715" type="line"/>
      <point x="115" y="715"/>
      <point x="48" y="627"/>
      <point x="48" y="534" type="qcurve" smooth="yes"/>
      <point x="48" y="500"/>
      <point x="0" y="500" type="qcurve"/>
      <point x="0" y="431" type="line"/>
      <point x="47" y="431" type="line"/>
    </contour>
  </outline>
</glyph>
<glyph name="g" format="2">
  <advance width="311"/>
  <unicode hex="0067"/>
  <outline>
    <contour>
      <point x="15" y="318" type="qcurve" smooth="yes"/>
      <point x="15" y="233"/>
      <point x="51" y="182" type="qcurve" smooth="yes"/>
      <point x="58" y="171"/>
      <point x="66" y="163" type="qcurve"/>
      <point x="36" y="141"/>
      <point x="36" y="103" type="qcurve" smooth="yes"/>
      <point x="36" y="62"/>
      <point x="70" y="35" type="qcurve" smooth="yes"/>
      <point x="80" y="28"/>
      <point x="91" y="22" type="qcurve"/>
      <point x="65" y="12"/>
      <point x="51" y="-2" type="qcurve" smooth="yes"/>
      <point x="21" y="-30"/>
      <point x="21" y="-94" type="qcurve" smooth="yes"/>
      <point x="21" y="-172"/>
      <point x="110" y="-259"/>
      <point x="168" y="-259" type="qcurve" smooth="yes"/>
      <point x="236" y="-259"/>
      <point x="326" y="-138"/>
      <point x="326" y="-62" type="qcurve" smooth="yes"/>
      <point x="326" y="7"/>
      <point x="251" y="87"/>
      <point x="161" y="87" type="qcurve" smooth="yes"/>
      <point x="130" y="87"/>
      <point x="100" y="96"/>
      <point x="100" y="106" type="qcurve" smooth="yes"/>
      <point x="100" y="118"/>
      <point x="135" y="130"/>
      <point x="153" y="130" type="qcurve" smooth="yes"/>
      <point x="207" y="130"/>
      <point x="279" y="234"/>
      <point x="279" y="318" type="qcurve" smooth="yes"/>
      <point x="279" y="382"/>
      <point x="257" y="427" type="qcurve"/>
      <point x="280" y="438"/>
      <point x="310" y="438" type="qcurve"/>
      <point x="310" y="519" type="line"/>
      <point x="299" y="519"/>
      <point x="274" y="504"/>
      <point x="252" y="482"/>
      <point x="243" y="468" type="qcurve" smooth="yes"/>
      <point x="240" y="464"/>
      <point x="238" y="460" type="qcurve"/>
      <point x="202" y="509"/>
      <point x="146" y="509" type="qcurve" smooth="yes"/>
      <point x="87" y="509"/>
      <point x="15" y="404"/>
    </contour>
    <contour>
      <point x="101" y="318" type="qcurve" smooth="yes"/>
      <point x="101" y="369"/>
      <point x="126" y="449"/>
      <point x="147" y="449" type="qcurve" smooth="yes"/>
      <point x="168" y="449"/>
      <point x="193" y="370"/>
      <point x="193" y="319" type="qcurve" smooth="yes"/>
      <point x="193" y="268"/>
      <point x="168" y="188"/>
      <point x="147" y="188" type="qcurve" smooth="yes"/>
      <point x="126" y="188"/>
      <point x="101" y="267"/>
    </contour>
    <contour>
      <point x="141" y="9" type="qcurve"/>
      <point x="148" y="8"/>
      <point x="156" y="8" type="qcurve" smooth="yes"/>
      <point x="197" y="8"/>
      <point x="249" y="-37"/>
      <point x="249" y="-87" type="qcurve" smooth="yes"/>
      <point x="249" y="-129"/>
      <point x="209" y="-189"/>
      <point x="168" y="-189" type="qcurve" smooth="yes"/>
      <point x="125" y="-189"/>
      <point x="98" y="-127"/>
      <point x="98" y="-90" type="qcurve" smooth="yes"/>
      <point x="98" y="-26"/>
    </contour>
  </outline>
</glyph>
<glyph name="h" format="2">
  <advance width="341"/>
  <unicode hex="0068"/>
  <outline>
    <contour>
      <point x="30" y="0" type="line"/>
      <point x="116" y="0" type="line"/>
      <point x="116" y="215.968" type="line" smooth="yes"/>
      <point x="116" y="359.613"/>
      <point x="139" y="446"/>
      <point x="173" y="446" type="qcurve" smooth="yes"/>
      <point x="206" y="446"/>
      <point x="225" y="356.599"/>
      <point x="225" y="215.968" type="qcurve" smooth="yes"/>
      <point x="225" y="0" type="line"/>
      <point x="311" y="0" type="line"/>
      <point x="311" y="299" type="line" smooth="yes"/>
      <point x="311" y="432"/>
      <point x="254" y="515"/>
      <point x="205" y="515" type="qcurve" smooth="yes"/>
      <point x="172" y="515"/>
      <point x="120" y="476"/>
      <point x="102" y="436" type="qcurve"/>
      <point x="102" y="700" type="line"/>
      <point x="30" y="700" type="line"/>
    </contour>
  </outline>
</glyph>
<glyph name="i" format="2">
  <advance width="168"/>
  <unicode hex="0069"/>
  <outline>
    <contour>
      <point x="41" y="0" type="line"/>
      <point x="127" y="0" type="line"/>
      <point x="127" y="500" type="line"/>
      <point x="41" y="500" type="line"/>
    </contour>
    <contour>
      <point x="84" y="573" type="qcurve" smooth="yes"/>
      <point x="106" y="573"/>
      <point x="138" y="599"/>
      <point x="138" y="636" type="qcurve" smooth="yes"/>
      <point x="138" y="673"/>
      <point x="106" y="699"/>
      <point x="84" y="699" type="qcurve" smooth="yes"/>
      <point x="62" y="699"/>
      <point x="30" y="673"/>
      <point x="30" y="636" type="qcurve" smooth="yes"/>
      <point x="30" y="599"/>
      <point x="62" y="573"/>
    </contour>
  </outline>
</glyph>
<glyph name="j" format="2">
  <advance width="195"/>
  <unicode hex="006A"/>
  <outline>
    <contour>
      <point x="-15" y="-250" type="line"/>
      <point x="137" y="-250"/>
      <point x="137" y="-65" type="qcurve"/>
      <point x="137" y="500" type="line"/>
      <point x="51" y="500" type="line"/>
      <point x="51" y="-105" type="line"/>
      <point x="51" y="-181"/>
      <point x="-15" y="-181" type="qcurve"/>
    </contour>
    <contour>
      <point x="93" y="573" type="qcurve" smooth="yes"/>
      <point x="115" y="573"/>
      <point x="147" y="599"/>
      <point x="147" y="636" type="qcurve" smooth="yes"/>
      <point x="147" y="673"/>
      <point x="115" y="699"/>
      <point x="93" y="699" type="qcurve" smooth="yes"/>
      <point x="71" y="699"/>
      <point x="39" y="673"/>
      <point x="39" y="636" type="qcurve" smooth="yes"/>
      <point x="39" y="599"/>
      <point x="71" y="573"/>
    </contour>
  </outline>
</glyph>
<glyph name="k" format="2">
  <advance width="301"/>
  <unicode hex="006B"/>
  <outline>
    <contour>
      <point x="30" y="0" type="line"/>
      <point x="116" y="0" type="line"/>
      <point x="116" y="180" type="line"/>
      <point x="135" y="208" type="line"/>
      <point x="209" y="0" type="line"/>
      <point x="296" y="0" type="line"/>
      <point x="177" y="266" type="line"/>
      <point x="292" y="500" type="line"/>
      <point x="211" y="500" type="line"/>
      <point x="116" y="290" type="line"/>
      <point x="116" y="700" type="line"/>
      <point x="30" y="700" type="line"/>
    </contour>
  </outline>
</glyph>
<glyph name="l" format="2">
  <advance width="186"/>
  <unicode hex="006C"/>
  <outline>
    <contour>
      <point x="30" y="751" type="line"/>
      <point x="30" y="131" type="line"/>
      <point x="30" y="57"/>
      <point x="79" y="-8"/>
      <point x="156" y="-8" type="qcurve"/>
      <point x="156" y="71" type="line"/>
      <point x="130" y="69"/>
      <point x="116" y="98"/>
      <point x="116" y="143" type="qcurve"/>
      <point x="116" y="751" type="line"/>
    </contour>
  </outline>
</glyph>
<glyph name="m" format="2">
  <advance width="516"/>
  <unicode hex="006D"/>
  <outline>
    <contour>
      <point x="215" y="0" type="line"/>
      <point x="301" y="0" type="line"/>
      <point x="301" y="243.054" type="line" smooth="yes"/>
      <point x="301" y="363.472"/>
      <point x="312.187" y="403.751" type="qcurve" smooth="yes"/>
      <point x="323.756" y="445.882"/>
      <point x="353" y="446" type="qcurve" smooth="yes"/>
      <point x="383" y="446.085"/>
      <point x="400" y="356.626"/>
      <point x="400" y="215.985" type="qcurve" smooth="yes"/>
      <point x="400" y="0" type="line"/>
      <point x="486" y="0" type="line"/>
      <point x="486" y="299" type="line" smooth="yes"/>
      <point x="486" y="432"/>
      <point x="432" y="515"/>
      <point x="385" y="515" type="qcurve" smooth="yes"/>
      <point x="354" y="515"/>
      <point x="304" y="477"/>
      <point x="288" y="439" type="qcurve"/>
      <point x="282" y="460"/>
      <point x="273" y="475" type="qcurve" smooth="yes"/>
      <point x="247" y="515"/>
      <point x="200" y="515" type="qcurve" smooth="yes"/>
      <point x="169" y="515"/>
      <point x="119" y="476"/>
      <point x="102" y="436" type="qcurve"/>
      <point x="92" y="500" type="line"/>
      <point x="30" y="500" type="line"/>
      <point x="30" y="0" type="line"/>
      <point x="116" y="0" type="line"/>
      <point x="116" y="215.939" type="line" smooth="yes"/>
      <point x="116" y="359.563"/>
      <point x="137" y="445.854"/>
      <point x="168" y="446" type="qcurve" smooth="yes"/>
      <point x="198.624" y="446.198"/>
      <point x="207.367" y="401.908" type="qcurve" smooth="yes"/>
      <point x="215" y="361.875"/>
      <point x="215" y="245.164" type="qcurve" smooth="yes"/>
    </contour>
  </outline>
</glyph>
<glyph name="r" format="2">
  <advance width="213"/>
  <unicode hex="0072"/>
  <outline>
    <contour>
      <point x="30" y="0" type="line"/>
      <point x="116" y="0" type="line"/>
      <point x="116" y="318" type="line"/>
      <point x="116" y="434"/>
      <point x="174" y="434" type="qcurve"/>
      <point x="213" y="434" type="line"/>
      <point x="213" y="515" type="line"/>
      <point x="161" y="515"/>
      <point x="107" y="453"/>
      <point x="102" y="436" type="qcurve"/>
      <point x="91" y="500" type="line"/>
      <point x="30" y="500" type="line"/>
    </contour>
  </outline>
</glyph>
<glyph name="s" format="2">
  <advance width="322"/>
  <unicode hex="0073"/>
  <outline>
    <contour>
      <point x="165.643" y="-5" type="qcurve" smooth="yes"/>
      <point x="227.551" y="-5"/>
      <point x="307" y="77.2128"/>
      <point x="307" y="132.021" type="qcurve" smooth="yes"/>
      <point x="307" y="179.979"/>
      <point x="253.122" y="260.16"/>
      <point x="191.209" y="296.447" type="qcurve" smooth="yes"/>
      <point x="154.598" y="317.905"/>
      <point x="113" y="355.17"/>
      <point x="113" y="388.447" type="qcurve" smooth="yes"/>
      <point x="113" y="417.809"/>
      <point x="140.192" y="455"/>
      <point x="158.644" y="455" type="qcurve" smooth="yes"/>
      <point x="182.923" y="455"/>
      <point x="214" y="397"/>
      <point x="214" y="333" type="qcurve"/>
      <point x="300" y="333" type="line"/>
      <point x="300" y="417"/>
      <point x="226.58" y="515"/>
      <point x="163.5" y="515" type="qcurve" smooth="yes"/>
      <point x="105.591" y="515"/>
      <point x="27" y="442.578"/>
      <point x="27" y="385.815" type="qcurve" smooth="yes"/>
      <point x="27" y="334.923"/>
      <point x="88.0045" y="250.982"/>
      <point x="146.702" y="220.418" type="qcurve" smooth="yes"/>
      <point x="193.261" y="196.175"/>
      <point x="221" y="154.846"/>
      <point x="221" y="130.38" type="qcurve" smooth="yes"/>
      <point x="221" y="101.998"/>
      <point x="191" y="56"/>
      <point x="166" y="56" type="qcurve" smooth="yes"/>
      <point x="132" y="56"/>
      <point x="101" y="133.684"/>
      <point x="101" y="179" type="qcurve"/>
      <point x="15" y="179" type="line"/>
      <point x="15" y="83.2062"/>
      <point x="102.703" y="-5"/>
    </contour>
  </outline>
</glyph>
<glyph name="t" format="2">
  <advance width="195"/>
  <unicode hex="0074"/>
  <outline>
    <contour>
      <point x="47.8435" y="701.205" type="line"/>
      <point x="47.8435" y="529" type="line"/>
      <point x="47.8435" y="500"/>
      <point x="0.495899" y="500" type="qcurve"/>
      <point x="0.495899" y="431" type="line"/>
      <point x="45.0685" y="431" type="line"/>
      <point x="45.0685" y="138.136" type="line"/>
      <point x="45.0685" y="64.0969"/>
      <point x="108.369" y="0.0848999"/>
      <point x="186" y="0.0848999" type="qcurve"/>
      <point x="186" y="68" type="line"/>
      <point x="159.118" y="68"/>
      <point x="131" y="95.5388"/>
      <point x="131" y="141.814" type="qcurve"/>
      <point x="131" y="431" type="line"/>
      <point x="195" y="431" type="line"/>
      <point x="195" y="500" type="line"/>
      <point x="130" y="500" type="line"/>
      <point x="130" y="701.205" type="line"/>
    </contour>
  </outline>
</glyph>
<glyph name="u" format="2">
  <advance width="341"/>
  <unicode hex="0075"/>
  <outline>
    <contour>
      <point x="311" y="0" type="line"/>
      <point x="311" y="500" type="line"/>
      <point x="225" y="500" type="line"/>
      <point x="225" y="130.847" type="line"/>
      <point x="225" y="104.906"/>
      <point x="199" y="64"/>
      <point x="173" y="64" type="qcurve" smooth="yes"/>
      <point x="138" y="64"/>
      <point x="116" y="141.822"/>
      <point x="116" y="221.638" type="qcurve"/>
      <point x="116" y="500" type="line"/>
      <point x="30" y="500" type="line"/>
      <point x="30" y="168" type="line"/>
      <point x="30" y="81"/>
      <point x="91" y="-5"/>
      <point x="149" y="-5" type="qcurve" smooth="yes"/>
      <point x="217" y="-5"/>
      <point x="240" y="58" type="qcurve"/>
      <point x="240" y="0" type="line"/>
    </contour>
  </outline>
</glyph>
<glyph name="z" format="2">
  <advance width="271"/>
  <unicode hex="007A"/>
  <outline>
    <contour>
      <point x="5" y="0" type="line"/>
      <point x="266" y="0" type="line"/>
      <point x="266" y="69" type="line"/>
      <point x="91" y="69" type="line"/>
      <point x="256" y="421" type="line"/>
      <point x="256" y="500" type="line"/>
      <point x="15" y="500" type="line"/>
      <point x="15" y="431" type="line"/>
      <point x="170" y="431" type="line"/>
      <point x="5" y="83" type="line"/>
    </contour>
  </outline>
</glyph>
<glyph name="braceleft" format="2">
  <advance width="258"/>
  <unicode hex="007B"/>
  <outline>
    <contour>
      <point x="218" y="750" type="qcurve"/>
      <point x="218" y="681" type="line"/>
      <point x="200.375" y="681"/>
      <point x="179.406" y="668.594"/>
      <point x="168.344" y="639.156"/>
      <point x="165" y="590.375"/>
      <point x="165" y="554" type="qcurve" smooth="yes"/>
      <point x="165" y="471.188"/>
      <point x="150.225" y="379.543"/>
      <point x="117.122" y="360.775" type="qcurve"/>
      <point x="150.023" y="342.45"/>
      <point x="165" y="246.334"/>
      <point x="165" y="155" type="qcurve" smooth="yes"/>
      <point x="165" y="116.375"/>
      <point x="168.344" y="64.5312"/>
      <point x="179.406" y="33.2188"/>
      <point x="200.375" y="20"/>
      <point x="218" y="20" type="qcurve"/>
      <point x="218" y="-49" type="line"/>
      <point x="181.625" y="-49"/>
      <point x="129.719" y="-37.25"/>
      <point x="96.5312" y="4.75"/>
      <point x="81" y="86.25"/>
      <point x="81" y="156" type="qcurve" smooth="yes"/>
      <point x="81" y="216"/>
      <point x="77.75" y="284.125"/>
      <point x="68.75" y="317.875"/>
      <point x="52.75" y="326"/>
      <point x="40" y="326" type="qcurve"/>
      <point x="40" y="395" type="line"/>
      <point x="52.75" y="395"/>
      <point x="68.75" y="401.438"/>
      <point x="77.75" y="432.562"/>
      <point x="81" y="497.5"/>
      <point x="81" y="556" type="qcurve" smooth="yes"/>
      <point x="81" y="622"/>
      <point x="96.5312" y="699.125"/>
      <point x="129.719" y="738.875"/>
      <point x="181.625" y="750"/>
    </contour>
  </outline>
</glyph>
<glyph name="braceright" format="2">
  <advance width="258"/>
  <unicode hex="007D"/>
  <outline>
    <contour>
      <point x="40" y="750" type="qcurve"/>
      <point x="40" y="681" type="line"/>
      <point x="57.625" y="681"/>
      <point x="78.5938" y="668.594"/>
      <point x="89.6562" y="639.156"/>
      <point x="93" y="590.375"/>
      <point x="93" y="554" type="qcurve" smooth="yes"/>
      <point x="93" y="471.188"/>
      <point x="107.775" y="379.599"/>
      <point x="140.878" y="360.831" type="qcurve"/>
      <point x="107.977" y="342.506"/>
      <point x="93" y="246.334"/>
      <point x="93" y="155" type="qcurve" smooth="yes"/>
      <point x="93" y="116.375"/>
      <point x="89.6562" y="64.5312"/>
      <point x="78.5938" y="33.2188"/>
      <point x="57.625" y="20"/>
      <point x="40" y="20" type="qcurve"/>
      <point x="40" y="-49" type="line"/>
      <point x="76.375" y="-49"/>
      <point x="128.281" y="-37.25"/>
      <point x="161.469" y="4.75"/>
      <point x="177" y="86.25"/>
      <point x="177" y="156" type="qcurve" smooth="yes"/>
      <point x="177" y="216"/>
      <point x="180.25" y="284.125"/>
      <point x="189.25" y="317.875"/>
      <point x="205.25" y="326"/>
      <point x="218" y="326" type="qcurve"/>
      <point x="218" y="395" type="line"/>
      <point x="205.25" y="395"/>
      <point x="189.25" y="401.438"/>
      <point x="180.25" y="432.562"/>
      <point x="177" y="497.5"/>
      <point x="177" y="556" type="qcurve" smooth="yes"/>
      <point x="177" y="622"/>
      <point x="161.469" y="699.125"/>
      <point x="128.281" y="738.875"/>
      <point x="76.375" y="750"/>
    </contour>
  </outline>
</glyph>
<glyph name="exclamdown" format="2">
  <advance width="168"/>
  <unicode hex="00A1"/>
  <outline>
    <contour>
      <point x="30" y="435" type="qcurve" smooth="yes"/>
      <point x="30" y="472"/>
      <point x="63" y="499"/>
      <point x="84" y="499" type="qcurve" smooth="yes"/>
      <point x="105" y="499"/>
      <point x="138" y="472"/>
      <point x="138" y="435" type="qcurve" smooth="yes"/>
      <point x="138" y="398"/>
      <point x="105" y="372"/>
      <point x="84" y="372" type="qcurve" smooth="yes"/>
      <point x="63" y="372"/>
      <point x="30" y="398"/>
    </contour>
    <contour>
      <point x="52" y="296" type="line"/>
      <point x="115" y="296" type="line"/>
      <point x="134" y="-201" type="line"/>
      <point x="33" y="-201" type="line"/>
    </contour>
  </outline>
</glyph>
<glyph name="section" format="2">
  <advance width="323"/>
  <unicode hex="00A7"/>
  <outline>
    <contour>
      <point x="117" y="622" type="qcurve" smooth="yes"/>
      <point x="117" y="652"/>
      <point x="145" y="691"/>
      <point x="164" y="691" type="qcurve" smooth="yes"/>
      <point x="189" y="691"/>
      <point x="221" y="632"/>
      <point x="221" y="568" type="qcurve"/>
      <point x="301" y="568" type="line"/>
      <point x="301" y="652"/>
      <point x="230" y="751"/>
      <point x="169" y="751" type="qcurve" smooth="yes"/>
      <point x="113" y="751"/>
      <point x="37" y="678"/>
      <point x="37" y="619" type="qcurve" smooth="yes"/>
      <point x="37" y="567"/>
      <point x="96" y="480"/>
      <point x="153" y="449" type="qcurve" smooth="yes"/>
      <point x="198" y="424"/>
      <point x="225" y="383"/>
      <point x="225" y="358" type="qcurve" smooth="yes"/>
      <point x="225" y="329"/>
      <point x="196" y="282"/>
      <point x="171" y="282" type="qcurve" smooth="yes"/>
      <point x="137" y="282"/>
      <point x="107" y="333"/>
      <point x="107" y="363" type="qcurve"/>
      <point x="27" y="363" type="line"/>
      <point x="27" y="289"/>
      <point x="112" y="221"/>
      <point x="172" y="221" type="qcurve" smooth="yes"/>
      <point x="232" y="221"/>
      <point x="308" y="305"/>
      <point x="308" y="361" type="qcurve" smooth="yes"/>
      <point x="308" y="410"/>
      <point x="255" y="491"/>
      <point x="194" y="528" type="qcurve" smooth="yes"/>
      <point x="158" y="550"/>
      <point x="117" y="588"/>
    </contour>
    <contour>
      <point x="107" y="365" type="qcurve" smooth="yes"/>
      <point x="107" y="395"/>
      <point x="139" y="433"/>
      <point x="161" y="433" type="qcurve" smooth="yes"/>
      <point x="190" y="433"/>
      <point x="226" y="397"/>
      <point x="226" y="357" type="qcurve"/>
      <point x="306" y="357" type="line"/>
      <point x="306" y="420"/>
      <point x="231" y="494"/>
      <point x="167" y="494" type="qcurve" smooth="yes"/>
      <point x="108" y="494"/>
      <point x="27" y="421"/>
      <point x="27" y="362" type="qcurve" smooth="yes"/>
      <point x="27" y="310"/>
      <point x="86" y="223"/>
      <point x="143" y="192" type="qcurve" smooth="yes"/>
      <point x="188" y="167"/>
      <point x="215" y="125"/>
      <point x="215" y="100" type="qcurve" smooth="yes"/>
      <point x="215" y="71"/>
      <point x="185" y="24"/>
      <point x="160" y="24" type="qcurve" smooth="yes"/>
      <point x="126" y="24"/>
      <point x="95" y="108"/>
      <point x="95" y="157" type="qcurve"/>
      <point x="15" y="157" type="line"/>
      <point x="15" y="56"/>
      <point x="100" y="-37"/>
      <point x="161" y="-37" type="qcurve" smooth="yes"/>
      <point x="221" y="-37"/>
      <point x="298" y="47"/>
      <point x="298" y="103" type="qcurve" smooth="yes"/>
      <point x="298" y="152"/>
      <point x="245" y="234"/>
      <point x="184" y="271" type="qcurve" smooth="yes"/>
      <point x="148" y="293"/>
      <point x="107" y="331"/>
    </contour>
  </outline>
</glyph>
<glyph name="questiondown" format="2">
  <advance width="343"/>
  <unicode hex="00BF"/>
  <outline>
    <contour>
      <point x="254" y="440" type="qcurve" smooth="yes"/>
      <point x="254" y="477"/>
      <point x="221" y="504"/>
      <point x="200" y="504" type="qcurve" smooth="yes"/>
      <point x="179" y="504"/>
      <point x="146" y="477"/>
      <point x="146" y="440" type="qcurve" smooth="yes"/>
      <point x="146" y="403"/>
      <point x="179" y="377"/>
      <point x="200" y="377" type="qcurve" smooth="yes"/>
      <point x="221" y="377"/>
      <point x="254" y="403"/>
    </contour>
    <contour>
      <point x="156" y="297" type="line"/>
      <point x="156" y="249"/>
      <point x="123" y="181"/>
      <point x="97" y="146" type="qcurve" smooth="yes"/>
      <point x="62" y="99"/>
      <point x="30" y="9"/>
      <point x="30" y="-45" type="qcurve" smooth="yes"/>
      <point x="30" y="-124"/>
      <point x="96" y="-212"/>
      <point x="168" y="-212" type="qcurve" smooth="yes"/>
      <point x="248" y="-212"/>
      <point x="313" y="-97"/>
      <point x="313" y="10" type="qcurve"/>
      <point x="229" y="10" type="line"/>
      <point x="229" y="-56"/>
      <point x="210" y="-142"/>
      <point x="170" y="-142" type="qcurve" smooth="yes"/>
      <point x="136" y="-142"/>
      <point x="114" y="-83"/>
      <point x="114" y="-48" type="qcurve" smooth="yes"/>
      <point x="114" y="35"/>
      <point x="178" y="123" type="qcurve" smooth="yes"/>
      <point x="206" y="161"/>
      <point x="241" y="239"/>
      <point x="241" y="297" type="qcurve"/>
    </contour>
  </outline>
  <guideline angle="0" x="0" y="-311"/>
  <guideline angle="0" x="0" y="-311"/>
</glyph>
<glyph name="tilde" format="2">
  <advance width="171"/>
  <unicode hex="02DC"/>
  <outline>
    <contour>
      <point x="-90" y="204" type="line"/>
      <point x="-90" y="241.73"/>
      <point x="-73.184" y="293"/>
      <point x="-43" y="293" type="qcurve" smooth="yes"/>
      <point x="-27.1534" y="293"/>
      <point x="6.5706" y="273.902"/>
      <point x="36" y="249" type="qcurve" smooth="yes"/>
      <point x="60.1472" y="228.626"/>
      <point x="113.534" y="192"/>
      <point x="149" y="192" type="qcurve" smooth="yes"/>
      <point x="203.331" y="192"/>
      <point x="251" y="290.43"/>
      <point x="251" y="384" type="qcurve"/>
      <point x="159" y="384" type="line"/>
      <point x="159" y="324.75"/>
      <point x="147.5" y="282"/>
      <point x="125" y="282" type="qcurve" smooth="yes"/>
      <point x="103.117" y="282"/>
      <point x="68.1104" y="307.644"/>
      <point x="50" y="325" type="qcurve" smooth="yes"/>
      <point x="28.1166" y="345.374"/>
      <point x="-24.27" y="383"/>
      <point x="-62" y="383" type="qcurve" smooth="yes"/>
      <point x="-119.35" y="383"/>
      <point x="-177" y="287.761"/>
      <point x="-177" y="204" type="qcurve"/>
    </contour>
  </outline>
</glyph>
<glyph name="endash" format="2">
  <advance width="407"/>
  <unicode hex="2013"/>
  <outline>
    <contour>
      <point x="30" y="285" type="line"/>
      <point x="377" y="285" type="line"/>
      <point x="377" y="364" type="line"/>
      <point x="30" y="364" type="line"/>
    </contour>
  </outline>
</glyph>
<glyph name="quoteleft" format="2">
  <advance width="160"/>
  <unicode hex="2018"/>
  <outline>
    <contour>
      <point x="130" y="584" type="qcurve" smooth="yes"/>
      <point x="130" y="616"/>
      <point x="94" y="645"/>
      <point x="82" y="645" type="qcurve"/>
      <point x="106" y="730" type="line"/>
      <point x="72" y="730" type="line"/>
      <point x="57" y="702"/>
      <point x="30" y="616"/>
      <point x="30" y="588" type="qcurve" smooth="yes"/>
      <point x="30" y="562"/>
      <point x="56" y="530"/>
      <point x="81" y="530" type="qcurve" smooth="yes"/>
      <point x="101" y="530"/>
      <point x="130" y="554"/>
    </contour>
  </outline>
</glyph>
<glyph name="quoteright" format="2">
  <advance width="100"/>
  <unicode hex="2019"/>
  <outline>
    <contour>
      <point x="0" y="646" type="qcurve" smooth="yes"/>
      <point x="0" y="614"/>
      <point x="36" y="585"/>
      <point x="48" y="585" type="qcurve"/>
      <point x="24" y="500" type="line"/>
      <point x="58" y="500" type="line"/>
      <point x="73" y="528"/>
      <point x="100" y="614"/>
      <point x="100" y="642" type="qcurve" smooth="yes"/>
      <point x="100" y="668"/>
      <point x="74" y="700"/>
      <point x="49" y="700" type="qcurve" smooth="yes"/>
      <point x="29" y="700"/>
      <point x="0" y="676"/>
    </contour>
  </outline>
</glyph>
<glyph name="quotedblbase" format="2">
  <advance width="269"/>
  <unicode hex="201E"/>
  <outline>
    <contour>
      <point x="30" y="98" type="qcurve" smooth="yes"/>
      <point x="30" y="66"/>
      <point x="66" y="37"/>
      <point x="78" y="37" type="qcurve"/>
      <point x="54" y="-48" type="line"/>
      <point x="88" y="-48" type="line"/>
      <point x="103" y="-20"/>
      <point x="130" y="66"/>
      <point x="130" y="94" type="qcurve" smooth="yes"/>
      <point x="130" y="120"/>
      <point x="104" y="152"/>
      <point x="79" y="152" type="qcurve" smooth="yes"/>
      <point x="59" y="152"/>
      <point x="30" y="128"/>
    </contour>
    <contour>
      <point x="139" y="98" type="qcurve" smooth="yes"/>
      <point x="139" y="66"/>
      <point x="175" y="37"/>
      <point x="187" y="37" type="qcurve"/>
      <point x="163" y="-48" type="line"/>
      <point x="197" y="-48" type="line"/>
      <point x="212" y="-20"/>
      <point x="239" y="66"/>
      <point x="239" y="94" type="qcurve" smooth="yes"/>
      <point x="239" y="120"/>
      <point x="213" y="152"/>
      <point x="188" y="152" type="qcurve" smooth="yes"/>
      <point x="168" y="152"/>
      <point x="139" y="128"/>
    </contour>
  </outline>
</glyph>
<glyph name=".notdef" format="2">
  <advance width="250"/>
  <outline>
    <contour>
      <point x="0" y="-259" type="line"/>
      <point x="250" y="-259" type="line"/>
      <point x="250" y="751" type="line"/>
      <point x="0" y="751" type="line"/>
    </contour>
    <contour>
      <point x="94" y="-158" type="line"/>
      <point x="94" y="640" type="line"/>
      <point x="156" y="640" type="line"/>
      <point x="156" y="-158" type="line"/>
    </contour>
  </outline>
</glyph>
<glyph name="a.alt" format="2">
  <advance width="338"/>
  <outline>
    <contour>
      <point x="323" y="500" type="line"/>
      <point x="323" y="0" type="line"/>
      <point x="239" y="0" type="line"/>
      <point x="239" y="44" type="line"/>
      <point x="212" y="-6"/>
      <point x="160" y="-6" type="qcurve" smooth="yes"/>
      <point x="103" y="-6"/>
      <point x="30" y="111"/>
      <point x="30" y="244" type="qcurve" smooth="yes"/>
      <point x="30" y="377"/>
      <point x="107" y="506"/>
      <point x="165" y="506" type="qcurve" smooth="yes"/>
      <point x="224" y="506"/>
      <point x="239" y="437" type="qcurve"/>
      <point x="252" y="500" type="line"/>
    </contour>
    <contour>
      <point x="173" y="436" type="qcurve" smooth="yes"/>
      <point x="147" y="436"/>
      <point x="114" y="360"/>
      <point x="114" y="249" type="qcurve" smooth="yes"/>
      <point x="114" y="140"/>
      <point x="148" y="66"/>
      <point x="177" y="66" type="qcurve" smooth="yes"/>
      <point x="198.75" y="66"/>
      <point x="237" y="112.75"/>
      <point x="237" y="172" type="qcurve" smooth="yes"/>
      <point x="237" y="325" type="line" smooth="yes"/>
      <point x="237" y="380.84"/>
      <point x="195.638" y="436"/>
    </contour>
  </outline>
</glyph>
